<?xml version="1.0" standalone="no"?>
<!DOCTYPE svg PUBLIC "-//W3C//DTD SVG 20010904//EN"
 "http://www.w3.org/TR/2001/REC-SVG-20010904/DTD/svg10.dtd">
<svg version="1.0" xmlns="http://www.w3.org/2000/svg"
 width="1000.000000pt" height="1000.000000pt" viewBox="0 0 1000.000000 1000.000000"
 preserveAspectRatio="xMidYMid meet">
<metadata>
Created by potrace 1.14, written by Peter Selinger 2001-2017
</metadata>
<g transform="translate(0.000000,1000.000000) scale(0.100000,-0.100000)"
fill="#000000" stroke="none">
<path d="M2212 7018 c-88 -68 -174 -134 -192 -148 -18 -14 -103 -79 -189 -145
-416 -319 -891 -682 -916 -700 -15 -11 -32 -25 -39 -31 -6 -6 -41 -33 -77 -60
-36 -27 -108 -82 -160 -121 -52 -40 -173 -133 -269 -206 l-175 -134 -2 -289
c-2 -159 -4 -488 -6 -731 l-3 -443 128 0 128 0 1 38 c0 28 5 682 9 1242 l0 56
73 55 c465 355 763 585 765 591 2 4 10 8 17 8 7 0 15 4 17 8 4 10 1025 791
1043 798 7 3 188 -132 405 -303 216 -169 451 -354 524 -411 72 -57 145 -114
161 -127 17 -14 122 -97 235 -186 113 -88 215 -169 227 -179 56 -48 59 -49
271 -52 111 -2 201 0 200 3 -3 6 -168 140 -240 194 -93 70 -428 338 -426 340
3 3 131 102 184 142 84 64 321 246 334 256 21 17 332 255 381 291 l39 30 28
-25 c15 -14 101 -83 192 -154 183 -143 344 -270 404 -318 22 -18 72 -57 111
-87 40 -30 90 -69 111 -87 31 -25 345 -272 479 -377 91 -72 252 -198 265 -209
18 -15 441 -23 424 -9 -5 5 -43 35 -84 68 -41 32 -81 65 -90 71 -8 7 -148 117
-310 244 -162 127 -358 281 -435 342 -77 61 -165 130 -195 153 -30 24 -94 74
-141 111 -47 38 -101 80 -120 95 -19 15 -104 82 -189 149 -85 66 -171 134
-190 149 -19 15 -73 58 -120 94 -47 37 -96 76 -110 86 -13 11 -28 20 -33 20
-5 0 -37 -22 -71 -48 -33 -27 -99 -78 -146 -113 -199 -152 -561 -430 -640
-490 -266 -205 -290 -221 -303 -212 -6 6 -70 56 -142 113 -71 56 -143 113
-160 126 -547 429 -801 630 -803 636 -2 4 -7 8 -12 8 -4 0 -80 -55 -168 -122z"/>
<path d="M4926 5581 c-70 -100 -130 -181 -134 -181 -4 0 -68 41 -142 90 l-135
90 -5 -248 c-3 -136 -1 -251 3 -257 5 -6 87 -10 200 -11 231 -2 750 -5 792 -4
l30 0 1 255 c1 140 -1 255 -3 255 -3 0 -56 -34 -120 -76 -95 -62 -118 -73
-128 -62 -7 7 -57 78 -110 158 -54 80 -103 151 -110 158 -10 11 -36 -20 -139
-167z"/>
<path d="M3687 5179 c-9 -6 -13 -123 -15 -491 -2 -265 -4 -531 -5 -591 l-2
-107 25 -1 c63 -4 176 -4 185 -2 7 2 11 73 10 199 l0 195 50 -53 c28 -29 88
-95 135 -147 47 -52 108 -118 135 -146 l50 -53 134 0 134 -1 -29 32 c-16 17
-31 34 -34 37 -3 3 -52 57 -110 120 -58 63 -129 141 -159 172 -86 92 -85 88
-43 135 120 133 221 243 281 308 21 22 40 45 44 51 4 7 -35 11 -128 11 l-134
1 -58 -62 c-51 -55 -148 -162 -235 -259 l-28 -32 1 344 2 343 -97 2 c-53 1
-102 -2 -109 -5z"/>
<path d="M6663 5175 c-48 -20 -83 -74 -83 -126 0 -109 101 -175 195 -129 55
28 77 61 78 120 3 101 -99 173 -190 135z"/>
<path d="M708 5160 c-2 -8 -3 -271 -3 -585 l0 -569 195 -1 c223 -1 270 4 344
38 141 65 221 241 178 392 -24 84 -75 144 -168 201 -18 11 -17 13 9 34 15 12
39 43 55 68 24 41 27 57 27 132 0 97 -15 136 -73 195 -38 38 -106 77 -155 89
-45 11 -141 17 -279 19 -106 2 -127 0 -130 -13z m378 -225 c73 -47 61 -164
-22 -204 -26 -13 -105 -22 -129 -14 -6 2 -9 50 -7 124 l3 121 66 -5 c36 -3 76
-13 89 -22z m-23 -429 c94 -15 147 -69 149 -150 1 -76 -44 -121 -134 -131 -90
-11 -148 -11 -149 -1 -6 44 -2 282 4 287 9 7 75 4 130 -5z"/>
<path d="M8329 5136 c-119 -32 -212 -123 -253 -247 -14 -43 -26 -92 -26 -109
0 -29 1 -30 53 -31 28 0 77 -1 107 -2 l55 -1 7 43 c21 121 130 185 236 137 84
-38 109 -141 60 -247 -41 -87 -95 -151 -333 -389 l-225 -225 0 -52 c0 -44 3
-53 18 -54 9 0 191 -2 405 -4 l387 -2 1 26 c3 84 2 171 -3 176 -2 3 -93 6
-202 7 -108 1 -195 5 -194 9 2 3 51 58 110 120 170 182 221 256 262 383 68
208 -38 414 -237 464 -59 15 -169 14 -228 -2z"/>
<path d="M9344 5016 c-49 -72 -133 -196 -188 -276 -54 -80 -128 -188 -165
-240 l-66 -95 -1 -107 -2 -108 254 0 254 0 0 -120 0 -120 110 0 110 0 0 120 0
120 44 -4 c25 -2 48 0 53 3 7 5 10 146 4 196 0 6 -22 10 -48 10 l-48 0 1 373
c1 261 -2 372 -10 373 -6 1 -56 2 -112 3 l-100 2 -90 -130z m89 -423 c-1 -98
-2 -183 -2 -188 -1 -8 -198 -13 -254 -6 -4 1 22 43 58 94 35 50 92 134 127
185 34 50 64 92 67 92 4 0 5 -80 4 -177z"/>
<path d="M1903 4875 c-140 -32 -252 -140 -298 -289 -27 -88 -28 -244 -1 -316
38 -101 115 -196 198 -244 122 -71 295 -63 402 19 25 19 47 32 47 27 1 -4 2
-23 3 -42 l1 -34 108 -1 c59 -1 107 2 108 5 0 3 2 197 4 433 l3 427 -109 0
-109 0 0 -45 0 -45 -51 39 c-86 65 -201 90 -306 66z m294 -263 c50 -51 67 -96
67 -182 0 -86 -17 -132 -68 -184 -84 -87 -221 -93 -312 -14 -103 90 -113 270
-21 375 86 98 241 100 334 5z"/>
<path d="M4927 4853 c-139 -31 -253 -123 -316 -253 -35 -72 -36 -79 -36 -185
0 -122 14 -174 68 -255 161 -241 494 -275 698 -71 113 113 157 267 122 424
-53 237 -300 394 -536 340z m201 -217 c180 -93 164 -390 -25 -462 -50 -20
-143 -15 -189 9 -105 54 -152 187 -113 318 16 53 90 130 140 146 46 15 150 8
187 -11z"/>
<path d="M2699 4847 c-6 -53 -3 -515 4 -566 25 -187 146 -298 336 -309 136 -7
241 28 313 104 35 38 75 119 82 169 4 22 9 54 12 72 3 18 7 145 8 283 2 220 0
250 -13 251 -9 1 -58 2 -109 2 -75 2 -92 -1 -93 -13 0 -8 -2 -130 -4 -270 -4
-284 -3 -274 -30 -324 -40 -75 -154 -97 -225 -45 -58 43 -63 75 -64 379 l-1
275 -108 2 c-75 1 -107 -2 -108 -10z"/>
<path d="M6045 4846 c-50 -16 -100 -42 -142 -74 l-33 -24 0 44 0 45 -107 -1
-108 -1 -3 -431 -3 -430 108 0 108 1 2 170 c4 360 10 400 78 468 68 67 190 54
231 -26 22 -41 25 -90 25 -369 l0 -248 108 0 108 0 -1 338 c-1 325 -2 339 -23
385 -27 58 -83 113 -142 138 -54 24 -153 31 -206 15z"/>
<path d="M7278 4835 c-168 -46 -283 -196 -295 -384 -10 -157 29 -274 122 -367
85 -86 180 -123 301 -119 85 2 135 18 197 61 26 19 49 34 50 34 3 0 -7 -81
-11 -95 -1 -3 -2 -12 -2 -20 0 -28 -60 -83 -109 -100 -58 -19 -180 -21 -213
-4 -13 7 -24 12 -25 11 -7 -4 -40 14 -56 30 -10 10 -28 18 -40 19 -166 5 -217
3 -217 -9 0 -24 41 -94 83 -139 45 -49 123 -93 202 -113 64 -17 211 -21 267
-8 24 5 52 11 63 14 33 7 119 53 151 81 100 90 121 177 124 513 1 140 3 325 4
410 1 85 1 160 -1 165 -2 6 -46 10 -106 10 l-102 0 -3 -30 c-5 -55 -10 -59
-42 -32 -16 14 -55 37 -86 52 -67 32 -181 41 -256 20z m249 -210 c47 -18 98
-70 121 -124 23 -55 19 -157 -8 -215 -25 -52 -78 -97 -137 -117 -43 -14 -136
-6 -178 15 -167 83 -171 354 -6 432 72 35 133 37 208 9z"/>
<path d="M6609 4828 c-1 -2 -3 -195 -5 -429 -4 -402 -3 -427 13 -431 15 -3
149 -3 190 1 8 1 12 60 13 224 1 122 2 310 4 417 1 107 0 201 -2 208 -3 8 -34
12 -108 12 -57 0 -104 -1 -105 -2z"/>
<path d="M2830 3429 c-34 -21 -60 -72 -60 -117 0 -24 -4 -29 -22 -28 -32 1
-32 -38 0 -42 12 -2 22 -9 22 -15 1 -7 1 -75 1 -153 l-1 -141 29 -1 29 -1 0
151 c1 83 3 153 6 155 3 3 26 5 51 5 41 -1 45 1 45 23 0 22 -3 24 -45 21 -51
-3 -61 5 -56 49 5 55 52 81 100 56 13 -7 20 -5 29 9 10 16 8 21 -11 31 -35 19
-83 18 -117 -2z"/>
<path d="M3123 3443 c-13 -2 -36 -18 -53 -34 -28 -29 -36 -57 -31 -111 2 -13
-4 -16 -23 -12 -22 4 -26 1 -26 -21 0 -20 5 -25 23 -25 24 0 24 0 25 -132 0
-192 -2 -178 27 -178 28 0 28 4 26 223 l-1 87 28 1 c15 1 39 0 55 -1 17 -1 27
3 27 12 0 25 -15 34 -60 34 -39 0 -45 3 -48 23 -5 34 18 81 42 86 11 3 37 4
56 2 47 -3 54 26 9 42 -33 11 -37 11 -76 4z"/>
<path d="M8333 3419 c-12 -12 -6 -39 11 -51 18 -12 47 12 44 35 -3 25 -37 34
-55 16z"/>
<path d="M8447 3423 c-14 -13 -7 -43 12 -53 15 -7 23 -6 35 6 19 19 20 26 4
42 -13 13 -41 16 -51 5z"/>
<path d="M206 3411 c-2 -3 -3 -112 -2 -241 l1 -235 119 -2 c196 -2 256 30 256
137 0 34 -6 48 -34 76 -19 19 -42 34 -52 34 -16 0 -15 3 5 13 81 41 83 153 3
200 -26 15 -56 19 -162 21 -72 2 -132 0 -134 -3z m267 -64 c47 -30 36 -116
-15 -133 -13 -4 -62 -8 -110 -9 -98 -1 -90 -8 -90 75 0 17 1 43 1 58 l1 28 95
-2 c67 -1 101 -6 118 -17z m12 -211 c37 -25 50 -59 36 -93 -18 -45 -45 -55
-158 -59 -115 -4 -105 -11 -105 76 0 25 1 57 1 71 l1 25 100 -2 c74 -1 107 -6
125 -18z"/>
<path d="M4162 3412 c-7 -2 -11 -87 -12 -243 l0 -239 29 0 28 0 1 78 c0 42 1
89 1 105 l1 27 110 0 110 0 0 25 0 25 -109 0 -109 0 -3 28 c-2 15 -2 54 1 87
l5 61 120 -1 120 0 0 25 0 25 -142 0 c-77 0 -146 -1 -151 -3z"/>
<path d="M7253 3413 c-31 -6 -73 -48 -74 -75 -2 -42 2 -63 23 -103 14 -28 16
-41 8 -43 -25 -9 -79 -64 -88 -90 -12 -36 -5 -81 17 -112 48 -68 148 -77 228
-21 l46 33 21 -24 c40 -44 54 -52 71 -38 13 11 9 18 -25 51 -22 22 -40 41 -40
43 0 3 11 26 25 52 23 44 24 48 8 59 -15 11 -20 8 -41 -28 -13 -23 -26 -44
-28 -46 -2 -3 -29 22 -60 54 -63 65 -64 55 12 109 14 10 32 34 40 52 12 29 12
39 0 68 -8 19 -23 39 -33 44 -24 13 -82 21 -110 15z m92 -53 c29 -32 13 -80
-37 -112 -22 -15 -45 -25 -51 -21 -13 8 -37 68 -37 93 0 53 88 81 125 40z m21
-335 c-3 -8 -25 -24 -49 -36 -37 -18 -48 -19 -85 -10 -42 12 -72 48 -72 86 0
26 30 70 59 88 26 16 26 16 89 -49 40 -40 62 -70 58 -79z"/>
<path d="M7818 3409 c-5 -3 -8 -15 -6 -25 3 -16 14 -19 73 -20 39 -1 73 -2 78
-3 4 0 7 -98 7 -217 l0 -215 28 3 27 3 0 213 c0 116 3 213 7 213 5 1 40 3 78
4 87 3 81 1 71 27 -8 22 -11 23 -180 23 -95 0 -177 -2 -183 -6z"/>
<path d="M2008 3333 c-3 -43 -6 -48 -25 -47 -18 1 -23 -4 -23 -22 0 -19 5 -24
25 -24 l25 0 0 -126 0 -126 30 -30 c28 -27 36 -30 76 -25 54 6 68 17 59 46 -5
17 -10 19 -25 11 -27 -15 -56 -12 -71 6 -15 19 -21 232 -6 241 5 3 32 5 59 4
46 -1 49 1 46 22 -3 19 -10 22 -45 23 -24 1 -49 2 -57 3 -9 1 -13 14 -12 44 1
39 -1 42 -26 45 -26 3 -27 1 -30 -45z"/>
<path d="M5869 3353 c-1 -16 -1 -36 0 -45 2 -16 -14 -23 -41 -20 -10 2 -17
-24 -10 -35 4 -6 16 -12 27 -14 19 -4 20 -13 22 -124 1 -70 7 -128 14 -141 16
-30 61 -48 101 -40 48 9 61 20 53 45 -5 17 -10 19 -25 11 -23 -12 -50 -13 -69
-1 -12 7 -15 38 -17 133 l-2 123 56 0 c50 0 57 2 57 20 0 17 -7 20 -50 21 -27
1 -53 2 -58 3 -4 0 -6 21 -4 46 3 43 2 45 -25 45 -24 0 -28 -4 -29 -27z"/>
<path d="M785 3283 c-53 -18 -72 -37 -56 -56 10 -13 17 -12 48 4 80 41 167 14
171 -53 l2 -34 -67 -1 c-113 -1 -120 -2 -152 -32 -43 -40 -44 -97 -2 -143 27
-31 34 -33 94 -33 52 0 72 5 96 23 l31 23 0 -26 c0 -23 4 -26 27 -23 l28 3 0
125 c1 147 -9 187 -54 214 -41 24 -114 28 -166 9z m163 -207 c7 -58 -57 -108
-127 -99 -20 3 -44 12 -53 21 -22 19 -23 65 -2 83 17 14 84 25 144 23 30 -1
35 -5 38 -28z"/>
<path d="M1150 3170 c0 -141 10 -185 51 -214 55 -38 140 -32 194 15 31 27 34
28 30 9 -6 -32 4 -47 31 -47 l24 0 0 178 c0 98 -4 180 -8 183 -5 3 -18 3 -29
0 -18 -5 -20 -13 -18 -97 2 -111 -11 -163 -48 -191 -41 -31 -110 -27 -144 7
-26 25 -26 30 -27 151 -1 69 -3 126 -6 127 -3 0 -15 2 -27 5 -23 4 -23 3 -23
-126z"/>
<path d="M1684 3285 c-62 -26 -82 -90 -44 -138 12 -14 50 -37 91 -52 53 -21
73 -33 80 -53 23 -60 -67 -86 -151 -44 -39 19 -41 19 -50 2 -11 -21 0 -33 53
-55 97 -40 207 5 207 85 0 47 -19 72 -72 94 -24 10 -62 26 -85 37 -98 43 -10
118 93 79 26 -10 54 0 54 20 0 27 -130 45 -176 25z"/>
<path d="M2387 3288 c-111 -30 -158 -175 -91 -280 34 -53 76 -72 154 -72 75
-1 106 16 151 78 46 62 39 168 -14 224 -46 50 -127 70 -200 50z m116 -52 c83
-34 99 -167 28 -230 -12 -11 -42 -21 -70 -24 -88 -8 -141 44 -141 137 0 48 18
81 59 108 39 26 77 29 124 9z"/>
<path d="M3362 3286 c-70 -24 -115 -92 -114 -171 1 -62 13 -95 48 -130 66 -66
180 -73 254 -16 20 16 22 21 11 35 -12 15 -16 14 -47 -4 -69 -43 -167 -21
-198 45 -9 18 -16 37 -16 42 0 4 60 8 133 7 168 -2 166 -3 160 44 -11 95 -65
152 -150 157 -26 1 -63 -3 -81 -9z m129 -52 c28 -14 67 -79 55 -91 -6 -7 -235
-7 -241 -1 -7 7 12 56 28 72 38 39 106 47 158 20z"/>
<path d="M4655 3286 c-92 -33 -134 -118 -112 -227 14 -70 95 -129 177 -129 73
0 154 46 130 75 -10 11 -16 11 -43 -5 -74 -44 -170 -22 -202 46 -9 20 -14 38
-10 42 3 3 66 6 140 7 86 0 138 4 146 12 14 14 -13 113 -38 138 -46 47 -125
64 -188 41z m132 -56 c20 -12 36 -32 41 -52 5 -18 8 -35 6 -37 -2 -2 -47 -3
-101 -3 -153 0 -145 -1 -137 25 10 31 35 64 59 76 33 16 98 12 132 -9z"/>
<path d="M5016 3290 c-2 -5 0 -324 3 -347 0 -7 12 -13 26 -13 l25 0 0 113 c0
93 3 117 20 144 31 52 84 69 147 49 44 -14 54 -47 54 -182 l1 -125 26 3 27 3
1 127 c2 107 -1 134 -17 166 -29 57 -78 75 -176 63 -7 0 -28 -15 -48 -32 l-35
-31 0 35 c0 31 -3 35 -26 33 -14 0 -27 -3 -28 -6z"/>
<path d="M5552 3290 c-46 -11 -72 -45 -72 -92 0 -48 30 -79 92 -97 76 -23 98
-39 98 -70 0 -16 -7 -34 -16 -42 -23 -19 -99 -14 -138 9 -30 18 -36 19 -47 6
-29 -35 72 -82 153 -71 54 7 91 36 102 79 14 56 -8 89 -79 116 -94 35 -110 45
-113 73 -6 49 16 54 148 37 31 -4 40 26 12 41 -27 15 -102 21 -140 11z"/>
<path d="M6253 3291 c-72 -18 -117 -71 -129 -149 -23 -153 127 -260 266 -189
46 23 55 34 42 54 -6 9 -20 6 -55 -12 -27 -13 -59 -22 -75 -20 -15 2 -33 4
-40 4 -24 2 -83 71 -80 94 3 21 7 22 143 22 l140 0 1 40 c1 49 -26 107 -64
134 -33 23 -102 33 -149 22z m133 -75 c31 -31 46 -75 27 -77 -11 -1 -195 -1
-215 0 -29 1 -21 36 16 75 30 32 39 36 86 36 46 0 56 -4 86 -34z"/>
<path d="M6600 3112 l0 -183 28 3 27 3 1 105 c1 58 2 110 3 117 3 26 54 73 91
83 29 8 38 15 37 30 -1 11 -5 21 -9 21 -4 1 -14 2 -20 3 -18 3 -59 -23 -85
-53 -21 -24 -23 -25 -19 -4 8 38 -4 61 -30 59 l-24 -1 0 -183z"/>
<path d="M8250 3275 c-3 -120 1 -246 8 -266 19 -49 59 -74 120 -76 62 -1 102
14 126 49 16 23 18 20 19 -30 0 -19 4 -23 26 -20 l26 3 0 180 c0 191 2 183
-44 176 -4 0 -8 -48 -8 -104 0 -109 -17 -168 -53 -187 -31 -17 -83 -21 -111
-10 -43 18 -56 61 -57 182 0 59 -3 111 -6 117 -11 18 -46 8 -46 -14z"/>
<path d="M8749 3281 c-4 -43 -5 -327 -1 -337 2 -6 14 -11 28 -11 24 0 24 0 24
104 0 65 5 116 14 136 15 38 58 70 93 70 19 0 23 5 23 28 0 27 -2 29 -27 23
-39 -9 -64 -24 -85 -48 -17 -21 -17 -21 -18 14 0 30 -3 35 -25 36 -17 1 -25
-4 -26 -15z"/>
<path d="M9131 3290 c-49 -12 -83 -40 -108 -90 -64 -124 21 -270 157 -270 44
0 98 17 123 38 19 17 20 21 7 42 -8 12 -11 12 -27 -2 -39 -35 -125 -42 -169
-13 -27 17 -58 71 -51 89 3 8 45 12 146 11 l141 -1 0 36 c0 49 -38 121 -76
142 -38 22 -97 29 -143 18z m135 -74 c40 -40 45 -76 12 -77 -42 -1 -163 -1
-195 0 -31 1 -32 2 -22 28 22 59 57 81 128 82 36 1 48 -4 77 -33z"/>
<path d="M9486 3291 c-2 -3 -4 -86 -3 -184 l0 -177 27 2 27 2 1 114 c0 86 4
119 16 138 47 71 151 79 189 15 13 -23 17 -54 17 -150 0 -121 0 -121 24 -121
13 0 26 6 28 13 3 6 4 69 3 139 -2 137 -10 161 -61 195 -52 34 -170 15 -197
-32 -13 -24 -22 -17 -22 17 0 27 -4 33 -23 34 -12 1 -24 -1 -26 -5z"/>
<path d="M3719 2989 c-18 -10 -22 -109 -4 -109 15 0 55 79 48 96 -6 17 -27 24
-44 13z"/>
</g>
</svg>
